<?xml version="1.0" encoding="UTF-8" standalone="no"?>
<svg
   xmlns:dc="http://purl.org/dc/elements/1.1/"
   xmlns:cc="http://creativecommons.org/ns#"
   xmlns:rdf="http://www.w3.org/1999/02/22-rdf-syntax-ns#"
   xmlns:svg="http://www.w3.org/2000/svg"
   xmlns="http://www.w3.org/2000/svg"
   id="svg8"
   version="1.1"
   width="24"
   viewBox="0 0 24 24"
   height="24"
   fill="#000000">
  <metadata
     id="metadata14">
    <rdf:RDF>
      <cc:Work
         rdf:about="">
        <dc:format>image/svg+xml</dc:format>
        <dc:type
           rdf:resource="http://purl.org/dc/dcmitype/StillImage" />
        <dc:title></dc:title>
      </cc:Work>
    </rdf:RDF>
  </metadata>
  <defs
     id="defs12" />
  <rect
     ry="3.1722283"
     y="0.26799655"
     x="0.2517547"
     height="23.474491"
     width="23.474491"
     id="rect841"
     style="opacity:1;vector-effect:none;fill:#ff00ff;fill-opacity:1;stroke:#000000;stroke-width:0.56021792;stroke-linecap:butt;stroke-linejoin:miter;stroke-miterlimit:4;stroke-dasharray:none;stroke-dashoffset:0;stroke-opacity:1" />
  <path
     id="path926"
     d="M 14.368615,22.07204 12.75025,21.24291 9.9344625,21.19234 7.1186755,21.14177 6.8961505,20.882863 C 6.7341235,20.694335 6.4990235,19.910655 6.031346,18.000146 5.6780917,16.557055 5.3688029,15.32225 5.3440461,15.256136 5.3146163,15.17751 5.4506432,15.125028 5.7373402,15.104414 6.0877743,15.079217 5.806042,14.99361 4.3321385,14.677419 2.9220849,14.374927 2.4433217,14.232231 2.2959426,14.070533 2.0932458,13.848141 0.76424429,10.505102 0.76424429,10.217621 c 0,-0.2538366 0.55775261,-0.7584207 0.83833331,-0.7584207 0.4945785,0 0.741338,0.3452371 1.3387671,1.8730407 0.3150417,0.805659 0.5915483,1.464835 0.6144625,1.464835 0.02293,0 0.6858361,0.136549 1.4731665,0.303442 1.6340068,0.346367 1.8104618,0.360686 1.2547008,0.101816 L 5.885963,13.017082 6.2836745,12.912849 c 1.955737,-0.512564 2.111991,-0.538802 2.505874,-0.420791 0.32948,0.09871 0.519883,0.08213 1.2393755,-0.107939 l 0.850095,-0.224571 v -1.304623 c 0,-1.6929431 0.140654,-2.0026112 0.90961,-2.0026112 0.195393,0 0.369254,0.098727 0.548043,0.3112035 0.260267,0.3093107 0.261859,0.3221641 0.261859,2.1128967 0,1.565289 -0.02324,1.830343 -0.177009,2.020037 -0.121655,0.150063 -0.549932,0.323527 -1.369532,0.554696 -0.655885,0.184994 -1.2096955,0.353531 -1.2306905,0.374524 -0.04146,0.04144 0.4447055,2.134804 0.5120355,2.204843 0.02257,0.02348 0.419003,-0.326225 0.880953,-0.777125 0.853427,-0.833007 1.17738,-1.008356 1.645732,-0.890807 0.415492,0.104281 0.679777,0.477055 0.982458,1.385744 0.155061,0.46551 0.43448,1.26556 0.620937,1.777891 l 0.339005,0.931508 -0.71243,-0.358774 c -0.42557,-0.214313 -0.927012,-0.38092 -1.245345,-0.413776 -0.431082,-0.04449 -0.543519,-0.09554 -0.588395,-0.267156 -0.05293,-0.202391 -0.07077,-0.19737 -0.387628,0.109069 -0.300568,0.29069 -0.509698,0.360671 -2.1999325,0.73617 -1.027283,0.22822 -1.892093,0.441724 -1.921804,0.474456 -0.02974,0.03273 1.119999,0.03245 2.5549065,-6.15e-4 l 2.608924,-0.06014 2.017039,1.009152 c 2.121685,1.06149 2.323573,1.223963 2.323573,1.869916 0,0.376571 -0.596579,0.957501 -0.97608,0.950473 -0.158547,-0.0029 -1.016534,-0.378447 -1.906633,-0.834468 z m 0.882253,-8.491071 c -0.05688,-0.06954 -0.232183,-0.915858 -0.389558,-1.88071 l -0.286139,-1.7542743 -0.305573,0.051445 c -0.168067,0.028294 -0.385228,0.082945 -0.482581,0.1214453 -0.154243,0.061 -0.177009,0.0053 -0.177009,-0.4332303 V 9.1824128 l 0.588237,-0.1650503 c 1.091255,-0.3061912 1.132104,-0.2754916 1.328136,0.9981485 0.0685,0.44505 0.171113,1.031526 0.228022,1.303279 l 0.10347,0.494099 0.571024,-1.050411 c 0.775374,-1.4263187 0.854292,-1.434777 1.8448,-0.197728 0.403106,0.503439 0.742628,0.904427 0.754497,0.891086 0.01187,-0.01334 -0.05798,-0.433905 -0.155215,-0.934586 -0.264837,-1.3636938 -0.136856,-1.5002648 1.112,-1.1866353 0.443585,0.1113995 0.805244,0.1736242 0.803688,0.1382773 -0.0015,-0.035346 -0.342614,-0.3119015 -0.757911,-0.6145653 -0.75938,-0.5534329 -0.939449,-0.7938576 -0.787929,-1.0520384 0.04514,-0.076877 0.434618,-0.4496754 0.865562,-0.8284409 0.430944,-0.3787655 0.769596,-0.7026038 0.752557,-0.7196413 -0.01704,-0.017039 -0.57109,0.036027 -1.231228,0.117916 -1.102049,0.1367101 -1.215351,0.135233 -1.384734,-0.018057 -0.101463,-0.091822 -0.184476,-0.2206003 -0.184476,-0.2861744 0,-0.065574 0.228851,-0.702067 0.508557,-1.4144293 0.27971,-0.7123622 0.493616,-1.3101511 0.475344,-1.3284206 -0.01827,-0.018272 -0.599876,0.3735511 -1.292452,0.8707117 -0.692582,0.4971607 -1.33564,0.905315 -1.429022,0.9070102 -0.30304,0.0055 -0.440162,-0.2536267 -0.686568,-1.2974186 C 15.503165,3.2451 15.368254,2.7840402 15.336567,2.784766 c -0.03168,7.165e-4 -0.211843,0.3762376 -0.400337,0.8344691 -0.616366,1.4983997 -0.612829,1.4966912 -1.831963,0.8837227 -0.442578,-0.2225253 -0.829458,-0.404591 -0.859733,-0.404591 -0.0303,0 0.196299,0.3047136 0.503495,0.6771407 0.307195,0.3724271 0.558535,0.7167931 0.558535,0.7652575 0,0.2472601 -0.250608,0.4636993 -0.901481,0.7785731 -0.394799,0.1909893 -0.683462,0.3787096 -0.641487,0.4171567 0.04197,0.038448 0.391687,0.1233326 0.77713,0.1886355 0.385442,0.065302 0.783711,0.1631022 0.885042,0.2173328 0.258193,0.1381796 0.229316,0.4684526 -0.07594,0.8686696 L 13.089644,8.3522486 12.80114,8.1094889 C 12.58594,7.9284084 12.219189,7.8120417 11.35767,7.6514857 10.722438,7.5331019 10.130541,7.4362422 10.042344,7.4362422 c -0.2396445,0 -0.4782455,-0.2846241 -0.4782455,-0.5705017 0,-0.2238391 0.138233,-0.3171969 1.2137745,-0.819727 0.667574,-0.3119155 1.21377,-0.5983427 1.21377,-0.6365052 0,-0.038161 -0.477924,-0.654164 -1.062051,-1.3688934 C 9.8971205,2.7772975 9.7320225,2.4536874 9.9889205,2.1967892 10.207637,1.9780683 10.459167,2.0650253 12.137093,2.9394406 c 0.911892,0.4752157 1.680413,0.8277524 1.707811,0.7834153 0.02738,-0.044339 0.307308,-0.6709773 0.622006,-1.3925334 0.634311,-1.45436674 0.705577,-1.56983114 0.968915,-1.56983114 0.329828,0 0.457758,0.26231634 0.808837,1.65847504 0.210343,0.836476 0.3901,1.3625013 0.456847,1.3368867 0.06053,-0.023226 0.82154,-0.5505872 1.691131,-1.1719127 1.229646,-0.8785804 1.641438,-1.1224748 1.852626,-1.0972609 0.498135,0.059474 0.466832,0.318045 -0.261096,2.1565227 -0.630682,1.5928804 -0.665972,1.7220259 -0.479188,1.7536513 0.110902,0.018779 0.835191,-0.041565 1.609531,-0.1340881 1.525244,-0.1822495 1.699939,-0.1503374 1.699939,0.3105356 0,0.2573307 -0.118701,0.3838146 -1.441356,1.5358809 -0.486774,0.4239916 -0.885043,0.8063691 -0.885043,0.8497275 0,0.043356 0.625851,0.5507469 1.390784,1.1275301 1.667019,1.2569895 1.712366,1.3046815 1.559541,1.6400985 -0.155169,0.34056 -0.430186,0.326728 -2.158721,-0.108568 -0.782841,-0.197144 -1.439232,-0.342566 -1.45864,-0.323158 -0.0194,0.01941 0.09598,0.714605 0.256422,1.544885 0.320063,1.656342 0.298868,1.867705 -0.18728,1.867705 -0.245291,0 -0.433478,-0.180273 -1.286075,-1.23202 -0.549308,-0.677611 -1.046722,-1.296288 -1.105362,-1.374836 -0.0829,-0.11104 -0.270226,0.163095 -0.841895,1.23202 -0.676004,1.264021 -0.758131,1.374836 -1.018904,1.374836 -0.155998,0 -0.330171,-0.0569 -0.387055,-0.126434 z M 5.7430061,12.022189 C 4.6676071,11.492135 4.4305107,10.047881 5.2795105,9.1988796 c 0.8531659,-0.8531634 2.259847,-0.6032879 2.83796,0.5041188 0.220994,0.4233276 0.137286,1.3451746 -0.160073,1.7627726 -0.467047,0.655909 -1.490691,0.913124 -2.2143914,0.556418 z"
     style="fill:#000000;stroke-width:0.10114774" />
</svg>
