<?xml version="1.0" encoding="UTF-8" standalone="no"?>
<svg
   xmlns:dc="http://purl.org/dc/elements/1.1/"
   xmlns:cc="http://creativecommons.org/ns#"
   xmlns:rdf="http://www.w3.org/1999/02/22-rdf-syntax-ns#"
   xmlns:svg="http://www.w3.org/2000/svg"
   xmlns="http://www.w3.org/2000/svg"
   xmlns:sodipodi="http://sodipodi.sourceforge.net/DTD/sodipodi-0.dtd"
   xmlns:inkscape="http://www.inkscape.org/namespaces/inkscape"
   fill="#000000"
   height="20"
   viewBox="0 0 61 19.999999"
   width="61"
   version="1.1"
   id="svg6"
   sodipodi:docname="alertasUpdate.svg"
   inkscape:version="0.92+devel unknown">
  <metadata
     id="metadata12">
    <rdf:RDF>
      <cc:Work
         rdf:about="">
        <dc:format>image/svg+xml</dc:format>
        <dc:type
           rdf:resource="http://purl.org/dc/dcmitype/StillImage" />
        <dc:title />
      </cc:Work>
    </rdf:RDF>
  </metadata>
  <defs
     id="defs10" />
  <sodipodi:namedview
     pagecolor="#ffffff"
     bordercolor="#666666"
     inkscape:document-rotation="0"
     borderopacity="1"
     objecttolerance="10"
     gridtolerance="10"
     guidetolerance="10"
     inkscape:pageopacity="0"
     inkscape:pageshadow="2"
     inkscape:window-width="1366"
     inkscape:window-height="707"
     id="namedview8"
     showgrid="false"
     inkscape:zoom="5.4791664"
     inkscape:cx="39.780632"
     inkscape:cy="8.4801734"
     inkscape:window-x="0"
     inkscape:window-y="312"
     inkscape:window-maximized="1"
     inkscape:current-layer="svg6"
     units="px" />
  <path
     sodipodi:nodetypes="ccccccccc"
     style="display:inline;opacity:1;vector-effect:none;fill:#ff0064;fill-opacity:1;stroke:#ffffff;stroke-width:0.76902175;stroke-linecap:butt;stroke-linejoin:miter;stroke-miterlimit:4;stroke-dasharray:none;stroke-dashoffset:0;stroke-opacity:1"
     inkscape:connector-curvature="0"
     d="M 56.434228,0.50068487 H 4.6911877 L 0.63844644,4.5534261 V 15.446577 L 4.6911877,19.499318 H 56.434228 l 4.052754,-4.052741 V 4.5534261 Z"
     id="path12145-73"
     inkscape:export-xdpi="124"
     inkscape:export-ydpi="124" />
  <path
     style="fill:#ffffff;stroke-width:0.01508145;stroke:#ffffff"
     d="M 11.515878,19.621482 C 10.477784,19.54835 9.5644728,19.328496 8.649123,18.931392 7.0493122,18.237351 5.6999064,17.075968 4.6813938,15.516514 c -0.023627,-0.03617 -0.025063,0.03446 -0.025794,1.269532 l -7.74e-4,1.307841 H 3.9178723 3.1809173 V 15.393329 12.69277 h 2.5793426 2.5793422 v 0.771507 0.771507 l -1.3411923,0.004 -1.3411925,0.004 0.075196,0.13117 c 0.8304096,1.44854 2.159882,2.610092 3.6809512,3.216022 1.9266865,0.767516 4.0898465,0.649456 5.9199395,-0.323092 0.428617,0.719609 0.335617,0.746706 0.671422,1.374679 -0.990209,0.524816 -2.074177,0.849974 -3.213923,0.956751 -0.298953,0.02801 -1.015865,0.04054 -1.274931,0.02229 z M 3.1871256,10.111808 C 3.2405545,8.6860482 3.5378787,7.4541684 4.1255662,6.2236435 4.6951736,5.0309756 5.5605428,3.9269573 6.5856493,3.0851268 7.5896758,2.2606068 8.7845846,1.6619067 10.027822,1.3604516 c 2.093138,-0.50753621 4.31179,-0.1963275 6.178281,0.8666241 1.274528,0.7258333 2.31605,1.7183183 3.161255,3.0124241 0.02364,0.036173 0.02507,-0.034461 0.0258,-1.2695335 l 8.02e-4,-1.3078411 h 0.736956 0.736955 V 5.3626831 8.063242 h -2.57934 -2.579343 V 7.2917345 6.5202278 l 1.341192,-0.00393 1.341192,-0.00393 -0.07519,-0.1311667 C 17.56381,5.0684919 16.359049,3.9521713 15.030411,3.3364686 13.661653,2.7021726 12.220654,2.5143233 10.756815,2.7793583 9.2939773,3.044213 7.9539313,3.7654783 6.8748622,4.8687785 5.6667163,6.1040542 4.9052723,7.7221676 4.7071715,9.4752483 4.6807439,9.7091165 4.6548278,10.099395 4.6548278,10.263495 v 0.114511 H 3.9159892 3.1771504 Z"
     id="path29"
     inkscape:connector-curvature="0"
     sodipodi:nodetypes="cccscccccccccccccccccccssssccccccccccccccssssscccc"
     inkscape:export-xdpi="124"
     inkscape:export-ydpi="124" />
  <g
     inkscape:groupmode="layer"
     id="layer1"
     inkscape:label="Layer 1"
     transform="translate(0,-4.0000059)" />
  <text
     xml:space="preserve"
     style="font-size:14.03635597px;line-height:3.75973749px;font-family:sans-serif;-inkscape-font-specification:'sans-serif, Normal';writing-mode:lr-tb;display:inline;fill:#ffffff;stroke:#ffffff;stroke-width:0.18116239;stroke-miterlimit:4;stroke-dasharray:none"
     x="7.6731305"
     y="15.579258"
     id="text930"
     transform="scale(0.96772585,1.0333505)"
     inkscape:export-xdpi="124"
     inkscape:export-ydpi="124"><tspan
       sodipodi:role="line"
       id="tspan928"
       x="7.6731305"
       y="15.579258"
       style="font-style:normal;font-variant:normal;font-weight:bold;font-stretch:normal;font-family:'Lohit Devanagari';-inkscape-font-specification:'Lohit Devanagari Bold';fill:#ffffff;stroke:#ffffff;stroke-width:0.18116239;stroke-miterlimit:4;stroke-dasharray:none">Modificar</tspan></text>
  <style
     type="text/css"
     id="style1357">
	.st0{fill:#43C1E8;}
	.st1{opacity:0.2;fill:#2D3079;}
	.st2{opacity:0.2;fill:#FFFFFF;}
	.st3{opacity:0.1;fill:#FFFFFF;}
	.st4{fill:#FFFFFF;}
	.st5{opacity:0.2;}
	.st6{fill:#202020;}
</style>
</svg>
