<?xml version="1.0" encoding="UTF-8" standalone="no"?>
<svg
   xmlns:dc="http://purl.org/dc/elements/1.1/"
   xmlns:cc="http://creativecommons.org/ns#"
   xmlns:rdf="http://www.w3.org/1999/02/22-rdf-syntax-ns#"
   xmlns:svg="http://www.w3.org/2000/svg"
   xmlns="http://www.w3.org/2000/svg"
   xmlns:sodipodi="http://sodipodi.sourceforge.net/DTD/sodipodi-0.dtd"
   xmlns:inkscape="http://www.inkscape.org/namespaces/inkscape"
   fill="#000000"
   height="24"
   viewBox="0 0 24 24"
   width="24"
   version="1.1"
   id="svg8"
   sodipodi:docname="delete.svg"
   inkscape:version="0.92+devel unknown">
  <metadata
     id="metadata14">
    <rdf:RDF>
      <cc:Work
         rdf:about="">
        <dc:format>image/svg+xml</dc:format>
        <dc:type
           rdf:resource="http://purl.org/dc/dcmitype/StillImage" />
        <dc:title />
      </cc:Work>
    </rdf:RDF>
  </metadata>
  <defs
     id="defs12" />
  <sodipodi:namedview
     pagecolor="#ffffff"
     bordercolor="#666666"
     inkscape:document-rotation="0"
     borderopacity="1"
     objecttolerance="10"
     gridtolerance="10"
     guidetolerance="10"
     inkscape:pageopacity="0"
     inkscape:pageshadow="2"
     inkscape:window-width="1920"
     inkscape:window-height="1051"
     id="namedview10"
     showgrid="false"
     inkscape:zoom="21.916667"
     inkscape:cx="12.520581"
     inkscape:cy="9.2898229"
     inkscape:window-x="1366"
     inkscape:window-y="0"
     inkscape:window-maximized="1"
     inkscape:current-layer="svg8" />
  <path
     inkscape:connector-curvature="0"
     d="m 3.3791139,19.998287 c 0,1.261944 1.2931329,2.294443 2.8736287,2.294443 H 17.747256 c 1.580497,0 2.873631,-1.032499 2.873631,-2.294443 V 6.2316293 H 3.3791139 Z M 17.02885,2.7899649 15.592036,1.6427434 H 8.4079642 L 6.9711499,2.7899649 H 1.9422996 V 5.0844078 H 22.0577 V 2.7899649 Z"
     id="path4-3"
     style="fill:#ffffff;stroke:#ffffff;stroke-width:3.33808422;stroke-miterlimit:4;stroke-dasharray:none"
     sodipodi:nodetypes="ssssccsccccccccc" />
  <path
     d="m 4.3959524,19.998287 c 0,1.261944 1.1406071,2.294443 2.5346825,2.294443 H 17.069365 c 1.394076,0 2.534684,-1.032499 2.534684,-2.294443 V 6.2316293 H 4.3959524 Z M 7.5136118,11.83007 9.3005636,10.212488 12,12.644597 l 2.686764,-2.432109 1.786952,1.617582 -2.686764,2.43211 2.686764,2.432109 -1.786952,1.617582 L 12,15.879762 9.3132361,18.311871 7.5262853,16.694289 10.213049,14.26218 Z M 16.435695,2.7899649 15.168354,1.6427434 H 8.8316469 L 7.5643055,2.7899649 H 3.1286113 V 5.0844078 H 20.871389 V 2.7899649 Z"
     id="path4"
     style="fill:#ff0064;stroke-width:1.20578647;fill-opacity:1"
     inkscape:connector-curvature="0" />
  <g
     id="g832"
     transform="translate(0.0912555)">
    <path
       inkscape:connector-curvature="0"
       id="path8"
       d="M 6.47584,8.8028368 17.341649,19.668647"
       style="fill:none;stroke:#ffffff;stroke-width:3.86513734;stroke-linecap:butt;stroke-linejoin:miter;stroke-miterlimit:4;stroke-dasharray:none;stroke-opacity:1" />
    <path
       inkscape:connector-curvature="0"
       id="path8-3"
       d="M 17.341649,8.8028376 6.4758402,19.668647"
       style="fill:none;stroke:#ffffff;stroke-width:3.86513734;stroke-linecap:butt;stroke-linejoin:miter;stroke-miterlimit:4;stroke-dasharray:none;stroke-opacity:1" />
  </g>
</svg>
