<?xml version="1.0" encoding="UTF-8" standalone="no"?>
<svg
   xmlns:dc="http://purl.org/dc/elements/1.1/"
   xmlns:cc="http://creativecommons.org/ns#"
   xmlns:rdf="http://www.w3.org/1999/02/22-rdf-syntax-ns#"
   xmlns:svg="http://www.w3.org/2000/svg"
   xmlns="http://www.w3.org/2000/svg"
   xmlns:sodipodi="http://sodipodi.sourceforge.net/DTD/sodipodi-0.dtd"
   xmlns:inkscape="http://www.inkscape.org/namespaces/inkscape"
   fill="#000000"
   height="24"
   viewBox="0 0 24 24"
   width="24"
   version="1.1"
   id="svg6"
   sodipodi:docname="estado.svg"
   inkscape:version="0.92.2 (5c3e80d, 2017-08-06)">
  <metadata
     id="metadata12">
    <rdf:RDF>
      <cc:Work
         rdf:about="">
        <dc:format>image/svg+xml</dc:format>
        <dc:type
           rdf:resource="http://purl.org/dc/dcmitype/StillImage" />
        <dc:title />
      </cc:Work>
    </rdf:RDF>
  </metadata>
  <defs
     id="defs10" />
  <sodipodi:namedview
     pagecolor="#ffffff"
     bordercolor="#666666"
     inkscape:document-rotation="0"
     borderopacity="1"
     objecttolerance="10"
     gridtolerance="10"
     guidetolerance="10"
     inkscape:pageopacity="0"
     inkscape:pageshadow="2"
     inkscape:window-width="1920"
     inkscape:window-height="1051"
     id="namedview8"
     showgrid="false"
     inkscape:zoom="16"
     inkscape:cx="38.200346"
     inkscape:cy="14.279354"
     inkscape:window-x="1366"
     inkscape:window-y="0"
     inkscape:window-maximized="1"
     inkscape:current-layer="svg6"
     showguides="true"
     inkscape:guide-bbox="true">
    <sodipodi:guide
       position="1.1015625,24"
       orientation="0,1"
       id="guide841"
       inkscape:locked="false" />
    <sodipodi:guide
       position="-0.00390625,23.257813"
       orientation="1,0"
       id="guide843"
       inkscape:locked="false" />
    <sodipodi:guide
       position="24.546875,0"
       orientation="0,1"
       id="guide845"
       inkscape:locked="false" />
    <sodipodi:guide
       position="24.218407,25.102291"
       orientation="1,0"
       id="guide847"
       inkscape:locked="false" />
  </sodipodi:namedview>
  <ellipse
     style="opacity:1;vector-effect:none;fill:#5599ff;fill-opacity:1;stroke:#5599ff;stroke-width:0.52148384;stroke-linecap:butt;stroke-linejoin:miter;stroke-miterlimit:4;stroke-dasharray:none;stroke-dashoffset:0;stroke-opacity:1"
     id="path824"
     cx="12.066837"
     cy="11.994888"
     rx="11.657739"
     ry="11.693419" />
  <path
     d="M0 0h24v24H0z"
     fill="none"
     id="path4" />
  <path
     style="fill:#ffffff;fill-opacity:1;stroke:#ffffff;stroke-width:0;stroke-miterlimit:4;stroke-dasharray:none;stroke-opacity:1"
     d="M 5.9623554,17.879059 C 5.6369818,17.745588 5.2448073,17.284248 5.1304074,16.900358 4.987488,16.420753 5.0899297,15.916446 5.4074078,15.537132 5.8948223,14.954742 5.7671066,14.96595 11.913314,14.96595 c 5.284431,0 5.639799,0.01067 5.955639,0.179452 1.00748,0.538265 1.048196,2.033094 0.07162,2.631695 -0.304496,0.186645 -0.490863,0.192419 -6.049815,0.186821 -3.1546118,-0.0026 -5.8224193,-0.04138 -5.9284594,-0.0849 z"
     id="path880"
     inkscape:connector-curvature="0" />
  <g
     id="g884"
     transform="translate(0.36368455)">
    <path
       inkscape:connector-curvature="0"
       id="path878"
       d="M 4.9087667,12.667363 C 4.6585298,12.59975 4.3020388,12.455017 4.1165537,12.345732 3.63188,12.060162 3.019495,11.368246 2.7613833,10.81457 2.5641549,10.391517 2.5386899,10.236564 2.5386899,9.4597322 c 0,-0.8081806 0.020196,-0.9198533 0.2573634,-1.4201608 C 4.1972573,5.0832292 8.534605,5.710785 9.052629,8.9448107 9.431946,11.312814 7.2269026,13.293665 4.9087667,12.667363 Z"
       style="fill:#ffffff;fill-opacity:1;stroke:#ffffff;stroke-width:0;stroke-miterlimit:4;stroke-dasharray:none;stroke-opacity:1" />
    <path
       inkscape:connector-curvature="0"
       id="path9125-3"
       d="M 16.672319,12.713753 C 16.146538,12.580976 15.398267,12.13573 15.034996,11.7395 14.8484,11.535957 14.577387,11.118328 14.432766,10.81142 14.194981,10.306787 14.169837,10.177521 14.169837,9.4598001 c 0,-0.7144179 0.02572,-0.8482073 0.257791,-1.3405754 0.444891,-0.9439139 1.065414,-1.5081555 2.010671,-1.8283095 1.324885,-0.448729 2.804418,0.029433 3.675164,1.18775 0.456694,0.6075139 0.620478,1.1426432 0.620478,2.0272666 0,0.7049242 -0.02102,0.7990232 -0.310318,1.3874622 -0.561498,1.1422 -1.558998,1.812384 -2.78485,1.871032 -0.354134,0.01695 -0.789047,-0.0057 -0.966454,-0.05064 z"
       style="fill:#ffffff;fill-opacity:1;stroke:#ffffff;stroke-width:0;stroke-miterlimit:4;stroke-dasharray:none;stroke-opacity:1" />
  </g>
</svg>
