<?xml version="1.0" encoding="UTF-8" standalone="no"?>
<svg
   xmlns:dc="http://purl.org/dc/elements/1.1/"
   xmlns:cc="http://creativecommons.org/ns#"
   xmlns:rdf="http://www.w3.org/1999/02/22-rdf-syntax-ns#"
   xmlns:svg="http://www.w3.org/2000/svg"
   xmlns="http://www.w3.org/2000/svg"
   xmlns:sodipodi="http://sodipodi.sourceforge.net/DTD/sodipodi-0.dtd"
   xmlns:inkscape="http://www.inkscape.org/namespaces/inkscape"
   id="svg8"
   version="1.1"
   width="24"
   viewBox="0 0 24 24"
   height="24"
   fill="#000000"
   sodipodi:docname="estadoAnimo.svg"
   inkscape:version="0.92.2 (5c3e80d, 2017-08-06)">
  <sodipodi:namedview
     pagecolor="#ffffff"
     bordercolor="#666666"
     borderopacity="1"
     objecttolerance="10"
     gridtolerance="10"
     guidetolerance="10"
     inkscape:pageopacity="0"
     inkscape:pageshadow="2"
     inkscape:window-width="1920"
     inkscape:window-height="1051"
     id="namedview12"
     showgrid="false"
     inkscape:zoom="19.666667"
     inkscape:cx="27.411346"
     inkscape:cy="13.528285"
     inkscape:window-x="1366"
     inkscape:window-y="0"
     inkscape:window-maximized="1"
     inkscape:current-layer="svg8" />
  <metadata
     id="metadata14">
    <rdf:RDF>
      <cc:Work
         rdf:about="">
        <dc:format>image/svg+xml</dc:format>
        <dc:type
           rdf:resource="http://purl.org/dc/dcmitype/StillImage" />
        <dc:title></dc:title>
      </cc:Work>
    </rdf:RDF>
  </metadata>
  <defs
     id="defs12" />
  <rect
     ry="3.1722283"
     y="0.26799655"
     x="0.2517547"
     height="23.474491"
     width="23.474491"
     id="rect841"
     style="opacity:1;vector-effect:none;fill:#ffffff;fill-opacity:1;stroke:#000000;stroke-width:0.56021792;stroke-linecap:butt;stroke-linejoin:miter;stroke-miterlimit:4;stroke-dasharray:none;stroke-dashoffset:0;stroke-opacity:1" />
  <path
     style="fill:#000000;stroke-width:0.04950679"
     d="M 12.1148,22.594865 C 7.3091157,22.443265 3.0969277,19.078046 1.8739522,14.413206 1.5902409,13.331055 1.5478652,12.967816 1.547592,11.616067 1.547401,10.552577 1.5627086,10.294795 1.6563925,9.7843213 2.0972291,7.3825043 3.1685559,5.3609456 4.8723427,3.7159258 6.5701321,2.0766975 8.6360834,1.0675149 11.000893,0.72224049 c 0.789639,-0.11529667 2.265376,-0.11507796 3.019916,4.4446e-4 2.461567,0.37685265 4.555204,1.42722095 6.26367,3.14245435 1.678376,1.6850369 2.73738,3.7992986 3.101213,6.1914737 0.118823,0.781207 0.118871,2.340929 9.6e-5,3.10853 -0.493716,3.191134 -2.209387,5.883891 -4.864655,7.635085 -1.875471,1.236924 -4.123444,1.866656 -6.406333,1.794644 z m 1.375764,-1.600005 c 3.178143,-0.345419 5.962241,-2.268228 7.422626,-5.126356 1.013573,-1.983662 1.281715,-4.388049 0.731906,-6.562971 C 20.736905,5.7129013 17.764137,2.9587055 14.095069,2.3106141 13.371986,2.1828926 12.069702,2.1571199 11.323895,2.2557722 9.219548,2.53415 7.3402763,3.4523179 5.8593288,4.925641 c -3.717515,3.6983756 -3.7195874,9.657115 -0.00483,13.362904 2.0129488,2.007998 4.8404892,3.01013 7.6358852,2.706307 z M 9.4661835,16.396314 c -0.167102,-0.06818 -0.36851,-0.303836 -0.4272624,-0.499931 -0.073396,-0.244987 -0.020786,-0.502591 0.1422582,-0.696349 0.2503214,-0.29749 0.1847305,-0.291766 3.3412317,-0.291766 2.713918,0 2.896426,0.0054 3.058632,0.09167 0.517409,0.274952 0.53832,1.038525 0.03678,1.344296 -0.15638,0.09534 -0.252093,0.09829 -3.106998,0.09543 -1.62011,-0.0013 -2.9902126,-0.02113 -3.0446713,-0.04336 z M 8.3534791,12.106035 C 8.2043826,12.065964 7.9919781,11.980194 7.8814615,11.915431 7.5926832,11.746195 7.2278107,11.336151 7.0740229,11.008033 c -0.117513,-0.25071 -0.132686,-0.342539 -0.132686,-0.802905 0,-0.478944 0.012031,-0.5451232 0.153343,-0.8416149 C 7.9295471,7.6115248 10.51383,7.9834267 10.82248,9.8999734 11.048485,11.303301 9.7346736,12.477193 8.3534791,12.106035 Z m 7.3068859,0.02749 c -0.313273,-0.07869 -0.759108,-0.342549 -0.975553,-0.577361 -0.111179,-0.120624 -0.272654,-0.36812 -0.358821,-0.55 -0.141678,-0.299056 -0.15666,-0.375662 -0.15666,-0.800996 0,-0.4233793 0.01532,-0.5026665 0.153597,-0.7944536 0.265077,-0.5593817 0.634798,-0.8937624 1.198002,-1.083492 0.789394,-0.2659258 1.67093,0.017438 2.18974,0.7038838 0.272108,0.3600244 0.369694,0.6771535 0.369694,1.2013998 0,0.417751 -0.01252,0.473516 -0.184894,0.822237 -0.334553,0.676892 -0.928884,1.074055 -1.659272,1.108812 -0.211002,0.01005 -0.470131,-0.0034 -0.575833,-0.03002 z"
     id="path9125"
     inkscape:connector-curvature="0" />
  <path
     style="fill:none;stroke:#ff00ff;stroke-width:1.20944882;stroke-linecap:round;stroke-linejoin:miter;stroke-opacity:1;stroke-miterlimit:4;stroke-dasharray:none;paint-order:markers fill stroke;opacity:0.46"
     d="M 0.52127049,10.642346 5.9792304,10.414318 7.8647075,5.0936446 11.946156,22.147604 18.929481,3.2694132 22.253875,12.694605 23.593556,2.7373459"
     id="path9127"
     inkscape:connector-curvature="0" />
</svg>
