<?xml version="1.0" encoding="UTF-8" standalone="no"?>
<!-- Generator: Adobe Illustrator 16.0.0, SVG Export Plug-In . SVG Version: 6.00 Build 0)  -->

<svg
   xmlns:dc="http://purl.org/dc/elements/1.1/"
   xmlns:cc="http://creativecommons.org/ns#"
   xmlns:rdf="http://www.w3.org/1999/02/22-rdf-syntax-ns#"
   xmlns:svg="http://www.w3.org/2000/svg"
   xmlns="http://www.w3.org/2000/svg"
   xmlns:sodipodi="http://sodipodi.sourceforge.net/DTD/sodipodi-0.dtd"
   xmlns:inkscape="http://www.inkscape.org/namespaces/inkscape"
   version="1.1"
   id="Layer_1"
   x="0px"
   y="0px"
   width="24"
   height="24"
   viewBox="0 0 24 24.000001"
   enable-background="new 0 0 266.893 266.895"
   xml:space="preserve"
   sodipodi:docname="facebook.svg"
   inkscape:version="0.92+devel unknown"><metadata
     id="metadata9"><rdf:RDF><cc:Work
         rdf:about=""><dc:format>image/svg+xml</dc:format><dc:type
           rdf:resource="http://purl.org/dc/dcmitype/StillImage" /><dc:title></dc:title></cc:Work></rdf:RDF></metadata><defs
     id="defs7" /><sodipodi:namedview
     pagecolor="#ffffff"
     bordercolor="#666666"
     inkscape:document-rotation="0"
     borderopacity="1"
     objecttolerance="10"
     gridtolerance="10"
     guidetolerance="10"
     inkscape:pageopacity="0"
     inkscape:pageshadow="2"
     inkscape:window-width="1366"
     inkscape:window-height="707"
     id="namedview5"
     showgrid="false"
     inkscape:zoom="3.8142342"
     inkscape:cx="18.524219"
     inkscape:cy="6.2903942"
     inkscape:window-x="0"
     inkscape:window-y="312"
     inkscape:window-maximized="1"
     inkscape:current-layer="Layer_1" /><g
     id="g821"
     transform="matrix(0.0931254,0,0,0.09312468,-0.42725869,22.192262)"><path
       inkscape:connector-curvature="0"
       d="m 248.082,19.412011 c 7.854,0 14.223,-6.369 14.223,-14.225 V -224.08299 c 0,-7.857 -6.368,-14.224 -14.223,-14.224 H 18.812 c -7.857,0 -14.224,6.367 -14.224,14.224 V 5.187011 c 0,7.855 6.366,14.225 14.224,14.225 z"
       fill="#3C5A99"
       id="Blue_1_" /><path
       inkscape:connector-curvature="0"
       d="m 182.409,19.412011 v -99.803 h 33.499 l 5.016,-38.895001 h -38.515 v -24.832 c 0,-11.261 3.127,-18.935 19.275,-18.935 l 20.596,-0.009 v -34.788 c -3.562,-0.474 -15.788,-1.533 -30.012,-1.533 -29.695,0 -50.025,18.126 -50.025,51.413 v 28.684 h -33.585 v 38.895001 h 33.585 v 99.803 z"
       fill="#FFFFFF"
       id="f" /></g></svg>