<?xml version="1.0" encoding="UTF-8" standalone="no"?>
<svg
   xmlns:dc="http://purl.org/dc/elements/1.1/"
   xmlns:cc="http://creativecommons.org/ns#"
   xmlns:rdf="http://www.w3.org/1999/02/22-rdf-syntax-ns#"
   xmlns:svg="http://www.w3.org/2000/svg"
   xmlns="http://www.w3.org/2000/svg"
   xmlns:sodipodi="http://sodipodi.sourceforge.net/DTD/sodipodi-0.dtd"
   xmlns:inkscape="http://www.inkscape.org/namespaces/inkscape"
   fill="#000000"
   height="24"
   viewBox="0 0 24 24"
   width="24"
   version="1.1"
   id="svg6"
   sodipodi:docname="forms.svg"
   inkscape:version="0.92.2 (5c3e80d, 2017-08-06)">
  <metadata
     id="metadata12">
    <rdf:RDF>
      <cc:Work
         rdf:about="">
        <dc:format>image/svg+xml</dc:format>
        <dc:type
           rdf:resource="http://purl.org/dc/dcmitype/StillImage" />
        <dc:title></dc:title>
      </cc:Work>
    </rdf:RDF>
  </metadata>
  <defs
     id="defs10" />
  <sodipodi:namedview
     pagecolor="#ffffff"
     bordercolor="#666666"
     inkscape:document-rotation="0"
     borderopacity="1"
     objecttolerance="10"
     gridtolerance="10"
     guidetolerance="10"
     inkscape:pageopacity="0"
     inkscape:pageshadow="2"
     inkscape:window-width="1366"
     inkscape:window-height="703"
     id="namedview8"
     showgrid="false"
     inkscape:zoom="22.627417"
     inkscape:cx="10.93475"
     inkscape:cy="9.0675933"
     inkscape:window-x="0"
     inkscape:window-y="282"
     inkscape:window-maximized="1"
     inkscape:current-layer="svg6" />
  <path
     style="fill:#f2f2f2;stroke-width:0.04837757"
     d="m 1.9060757,23.521166 c -0.496429,-0.09732 -1.01064296,-0.467698 -1.27448891,-0.917998 -0.291037,-0.496722 -0.275785,0.03546 -0.275785,-9.62384 0,-9.5326839 -0.0116,-9.0819453 0.246062,-9.5869491 C 0.75756574,3.0871844 1.1397437,2.7364308 1.5052167,2.5633015 l 0.326102,-0.1544762 1.124777,-0.015982 1.124778,-0.015982 v 0.6811833 0.6811833 h -1.020764 -1.020765 l -0.164488,0.1644887 -0.164482,0.1644815 v 8.8603379 c 0,7.825177 0.0086,8.876912 0.07339,9.002242 0.159147,0.307763 -0.315572,0.288688 7.183254,0.288688 7.4988173,0 8.3014523,0.01904 8.4606003,-0.288688 0.117446,-0.732208 0.07338,-1.118254 0.07338,-1.962167 l 0.677287,-0.675994 0.677285,-0.675988 c 0.01119,1.119521 -0.0028,2.241968 -0.04795,3.358482 -0.143107,0.754606 -0.794384,1.408729 -1.543063,1.549814 -0.325226,0.0613 -15.0450023,0.05773 -15.3585233,-0.0037 z m 2.610197,-3.362334 c -0.397327,-0.172101 -0.628911,-0.53561 -0.628911,-0.987181 0,-0.346601 0.107859,-0.592057 0.355833,-0.809782 0.349141,-0.306545 0.924866,-0.342734 1.301351,-0.0818 0.468618,0.324788 0.600282,0.966083 0.298547,1.454127 -0.264934,0.428517 -0.870448,0.622306 -1.32682,0.424628 z m 4.141102,-0.700011 c -0.160592,-0.190855 -0.160767,-0.383272 -5.18e-4,-0.573719 l 0.125242,-0.148843 h 1.8098573 c 1.417544,0 1.809084,0.01313 1.806282,0.0605 -0.0021,0.03328 -0.05166,0.223745 -0.110381,0.423306 l -0.106798,0.362832 -1.698963,0.01269 -1.6989623,0.0127 -0.125766,-0.149455 z m -4.455557,-2.461954 c -0.0532,-0.02204 -0.352549,-0.314572 -0.665187,-0.65011 -0.496334,-0.532675 -0.568442,-0.631084 -0.568442,-0.775797 0,-0.121425 0.03408,-0.192541 0.127475,-0.265999 0.235757,-0.185455 0.33499,-0.141135 0.807972,0.360839 l 0.434472,0.461109 1.012577,-1.041804 c 0.556919,-0.572988 1.062711,-1.054384 1.123989,-1.069761 0.258876,-0.06495 0.516746,0.210188 0.435851,0.465065 -0.03452,0.108829 -2.247059,2.396369 -2.418437,2.500448 -0.112398,0.06823 -0.15795,0.07079 -0.29027,0.01599 z m 4.56627,-1.090682 c -0.26635,-0.144757 -0.297868,-0.559744 -0.05692,-0.749278 0.120849,-0.09506 0.191205,-0.09734 2.9980943,-0.09734 3.183887,0 1.10181,-0.0079 1.205605,0.30664 0.06655,0.201625 0.01146,0.366939 -0.169656,0.509426 -0.130482,0.102632 1.855843,0.103097 -0.99093,0.101163 -2.3757663,-0.0014 -2.8812303,-0.01357 -2.9861993,-0.07065 z M 17.428678,4.0300099 C 17.28404,3.750306 15.957332,3.7392063 14.858279,3.7392063 H 13.853117 V 3.058023 2.3768397 l 1.124777,0.015982 2.402131,0.015982 0.314455,0.1512144 c 0.39762,0.1912127 0.659314,0.4204461 0.856655,0.7503941 0.587504,3.7410482 0.304407,2.0833605 0.304407,7.0936778 l -0.677287,0.675995 -0.677285,0.675988 C 17.45916,8.2077068 17.58393,7.5600601 17.42868,4.0300099 Z M 3.5770737,12.728465 c -0.552467,-0.578775 -0.608885,-0.654284 -0.608885,-0.81492 0,-0.216739 0.13343,-0.353294 0.3452,-0.353294 0.125826,0 0.222702,0.07349 0.592006,0.449104 l 0.441558,0.449097 1.02272,-1.045758 c 0.950802,-0.972227 1.034747,-1.045759 1.193835,-1.045759 0.127234,0 0.196825,0.03269 0.271377,0.127468 0.197847,0.25152 0.178077,0.280303 -1.091522,1.589381 -0.655481,0.675864 -1.223274,1.240935 -1.261769,1.255705 -0.212193,0.08143 -0.300451,0.02183 -0.90452,-0.611024 z m 5.095947,-0.567836 c -0.150324,-0.150324 -0.177551,-0.306858 -0.08769,-0.504092 0.114901,-0.252184 0.08039,-0.249485 3.1898473,-0.249485 2.822193,0 2.892769,0.0021 2.997621,0.09676 0.159015,0.143289 0.204874,0.301282 0.142399,0.49059 -0.106297,0.322082 0.04305,0.30764 -3.180967,0.30764 H 8.8144347 Z M 4.2450337,9.7014416 c -0.05605,-0.0092 -0.366275,-0.29859 -0.689378,-0.643111 -0.517279,-0.55157 -0.587467,-0.646419 -0.587467,-0.793889 0,-0.208566 0.15406,-0.364758 0.359766,-0.364758 0.124417,0 0.216499,0.07301 0.577681,0.458022 l 0.429677,0.458022 1.045934,-1.064251 c 1.139161,-1.1590912 1.187085,-1.1905659 1.435161,-0.9424901 0.218907,0.2189073 0.173238,0.3120979 -0.506019,1.0326591 -0.80992,0.859173 -1.798458,1.829358 -1.890868,1.855768 -0.03992,0.01134 -0.118434,0.0132 -0.174487,0.0044 z m 4.551485,-1.09466 c -0.284389,-0.125059 -0.34728,-0.487037 -0.123498,-0.710819 l 0.141414,-0.141414 h 2.9197983 c 3.224016,0 3.07467,-0.01445 3.180967,0.307632 0.06247,0.189308 0.01664,0.347295 -0.142384,0.490598 -0.104507,0.09418 -0.18331,0.09704 -2.968679,0.107551 -2.2936753,0.0087 -2.8903373,-0.0022 -3.0076183,-0.05356 z M 4.9720027,4.1801514 C 4.7293707,4.0321918 4.7016767,3.8969667 4.7186867,2.9433626 l 0.01533,-0.8571513 0.157987,-0.1410487 c 0.154958,-0.1383414 0.168597,-0.1410561 0.709848,-0.1410561 h 0.551855 l 0.369166,-0.6410026 c 0.203034,-0.35254872 0.413936,-0.67909622 0.468668,-0.72566242 0.09091,-0.077355 0.2546,-0.084602 1.896211,-0.083945 1.3320433,5.255e-4 1.8256713,0.016128 1.9087173,0.060497 0.06334,0.033788 0.276604,0.3436968 0.490585,0.71285522 l 0.378579,0.6530947 0.627005,0.024229 c 0.913096,0.035248 0.931639,0.059768 0.931639,1.233629 0,0.6343252 -0.01592,0.8338208 -0.07578,0.9495759 -0.150733,0.2914894 -0.0405,0.2840678 -4.2161723,0.2838707 -3.64344,-1.97e-4 -3.817854,-0.00438 -3.960282,-0.09103 z"
     id="path827"
     inkscape:connector-curvature="0"
     sodipodi:nodetypes="ccscccccccccccscscccccccccsccccccscscccccccccscccccccccccsccccccscccccccccccccscccsssccccsccsccccsscccscccccccscccccccccsccccccccsccccc" />
  <g
     style="fill:#000000"
     id="g865"
     transform="translate(17.380025,2.4088037)">
    <path
       id="path848"
       d="m 5.2169325,11.32685 -2.8803637,-2.8803643 -6.7205562,6.7205563 -0.1341412,2.926301 3.0145053,-0.04594 z M 7.2062171,9.3375656 C 7.4683193,9.0754648 7.4380662,8.6218165 7.1385077,8.3222575 L 5.3411603,6.5249102 C 5.041603,6.2253529 4.5879548,6.1950996 4.3258531,6.4572013 L 3.0086243,7.7744301 5.8889885,10.654794 Z"
       inkscape:connector-curvature="0"
       style="fill:#f2f2f2;stroke-width:0.71847337"
       sodipodi:nodetypes="cccccccsssccc"
       inkscape:transform-center-x="0.2182874"
       inkscape:transform-center-y="-0.72762467" />
    <path
       id="path850"
       d="M 0,0 H 24 V 24 H 0 Z"
       inkscape:connector-curvature="0"
       style="fill:none" />
  </g>
</svg>
