<?xml version="1.0" encoding="UTF-8" standalone="no"?>
<!-- Created with Inkscape (http://www.inkscape.org/) -->

<svg
   xmlns:dc="http://purl.org/dc/elements/1.1/"
   xmlns:cc="http://creativecommons.org/ns#"
   xmlns:rdf="http://www.w3.org/1999/02/22-rdf-syntax-ns#"
   xmlns:svg="http://www.w3.org/2000/svg"
   xmlns="http://www.w3.org/2000/svg"
   xmlns:sodipodi="http://sodipodi.sourceforge.net/DTD/sodipodi-0.dtd"
   xmlns:inkscape="http://www.inkscape.org/namespaces/inkscape"
   width="24"
   height="24"
   viewBox="0 0 6.3499999 6.3499998"
   version="1.1"
   id="svg165"
   inkscape:version="0.92+devel unknown"
   sodipodi:docname="google1.svg">
  <defs
     id="defs159" />
  <sodipodi:namedview
     id="base"
     pagecolor="#ffffff"
     bordercolor="#666666"
     borderopacity="1.0"
     inkscape:pageopacity="0.0"
     inkscape:pageshadow="2"
     inkscape:zoom="3.959798"
     inkscape:cx="22.685304"
     inkscape:cy="50.020498"
     inkscape:document-units="mm"
     inkscape:current-layer="layer1"
     inkscape:document-rotation="0"
     showgrid="false"
     units="px"
     inkscape:window-width="1920"
     inkscape:window-height="1051"
     inkscape:window-x="1366"
     inkscape:window-y="0"
     inkscape:window-maximized="1" />
  <metadata
     id="metadata162">
    <rdf:RDF>
      <cc:Work
         rdf:about="">
        <dc:format>image/svg+xml</dc:format>
        <dc:type
           rdf:resource="http://purl.org/dc/dcmitype/StillImage" />
        <dc:title></dc:title>
      </cc:Work>
    </rdf:RDF>
  </metadata>
  <g
     inkscape:label="Capa 1"
     inkscape:groupmode="layer"
     id="layer1"
     transform="translate(0,-290.65)">
    <g
       id="g94"
       transform="matrix(0.26458333,0,0,0.26458333,340.92888,298.63428)">
      <g
         id="g119"
         transform="matrix(0.0130875,0,0,0.0130875,-1261.0686,-16.672009)">
        <path
           inkscape:connector-curvature="0"
           id="path108"
           d="m -1211.27,801.2923 c -125.7989,-7.2671 -242.4566,-37.3065 -353,-90.8976 -75.4584,-36.582 -144.6067,-82.9874 -210,-140.9312 -16.7323,-14.8261 -56.8118,-54.9056 -71.6379,-71.6379 -32.9447,-37.1802 -62.8856,-76.509 -87.5495,-115 -80.4842,-125.6056 -128.2897,-264.6972 -141.7754,-412.5 -4.8613,-53.2795 -4.8613,-116.72048 0,-170 16.8938,-185.1554 89.4221,-361.04997 206.9944,-502 132.7645,-159.16302 311.4401,-267.15021 513.6395,-310.4313 33.3157,-7.1312 78.2894,-13.8034 111.3289,-16.5163 7.15,-0.5871 15.4869,-1.3 18.5265,-1.5843 26.2386,-2.4539 98.8782,-2.167 131.9973,0.5213 169.3681,13.7475 322.4699,69.54772 461.0404,168.03304 28.6478,20.36068 73.9358,56.68764 73.9358,59.30629 0,1.60221 -265.1772,266.67127 -266.78,266.67127 -0.7025,0 -5.2019,-3.08275 -9.9986,-6.85056 -110.2224,-86.57879 -248.7901,-125.26661 -390.7214,-109.08862 -120.6201,13.74885 -232.5616,67.92358 -319.0386,154.40059 -116.8099,116.80994 -173.4354,279.13068 -154.9025,444.03859 10.7276,95.4561 46.8164,186.7297 103.9879,263 29.7804,39.729 69.5256,79.3744 109.9532,109.6772 79.2193,59.3795 171.3923,94.448 276,105.0082 19.5912,1.9777 83.9942,1.6585 107.5,-0.5329 91.7657,-8.555 166.6628,-31.4532 235.9793,-72.1455 95.781,-56.2284 162.6817,-146.7576 190.5537,-257.8553 2.4905,-9.9273 4.304,-18.6342 4.0298,-19.3487 -0.4066,-1.0595 -45.6313,-1.3454 -245.2806,-1.551 l -244.7822,-0.252 v -177 -177 l 426.1266,-0.25116 c 340.1489,-0.20049 426.3308,0.001 427.1387,1 3.5292,4.36273 14.8954,70.73662 18.7945,109.75116 3.2173,32.19328 2.9325,97.7767 -0.6253,144 -16.64,216.185 -92.577,402.6295 -223.3989,548.5 -16.7397,18.6653 -55.419,57.1056 -70.5356,70.0996 -55.6915,47.8717 -112.0158,85.4567 -175.8533,117.3461 -102.3768,51.1415 -211.0848,80.8859 -331.1874,90.6186 -22.8082,1.8484 -97.6558,2.7197 -120.4593,1.4024 z"
           style="fill:#f3a49e" />
        <path
           inkscape:connector-curvature="0"
           id="path106"
           d="m -1197.77,801.3374 c -170.4276,-7.1268 -329.1732,-57.9806 -470,-150.5635 -53.1452,-34.939 -95.3908,-69.6284 -143.5368,-117.8634 -55.8151,-55.9183 -97.0078,-108.5361 -136.7624,-174.6946 -48.9563,-81.4716 -88.0106,-180.1596 -108.1903,-273.3903 -13.8119,-63.8115 -19.975,-117.3479 -21.1823,-184 -2.255,-124.49194 19.6361,-244.14499 65.6805,-359 86.7418,-216.37209 254.1432,-391.98684 466.4913,-489.3791 208.9231,-95.8214 450.6136,-109.5001 667.5,-37.77769 111.5936,36.90301 220.029,98.14522 309.8378,174.99038 l 9.3378,7.98991 -132.9804,132.98033 -132.9803,132.98034 -10.8575,-8.48121 c -74.7432,-58.38504 -164.921,-95.84099 -259.3574,-107.72579 -26.4177,-3.32465 -49.2561,-4.41245 -78.9739,-3.76153 -36.1617,0.79206 -61.103,3.40109 -93.3281,9.7628 -129.3152,25.52869 -242.5733,95.56615 -324.2832,200.53286 -56.4606,72.53078 -94.5791,163.26098 -107.2965,255.3887 -4.0176,29.10465 -4.6127,38.90949 -4.6127,76 0,38.1224 0.6137,47.6806 5.0581,78.7876 4.5217,31.6472 16.0797,80.3931 21.9827,92.7124 0.7907,1.65 3.4902,8.7725 5.999,15.8277 20.2463,56.9364 55.2456,116.6779 97.0585,165.6723 12.8495,15.0565 42.7686,44.9931 57.8961,57.9301 106.1751,90.8005 239.8815,136.4691 381,130.1341 66.1558,-2.9698 118.1564,-12.1358 173,-30.4944 136.0708,-45.5487 232.258,-138.7838 275.9382,-267.4691 6.0183,-17.7303 14.934,-51.6884 14.1246,-53.7977 -0.4066,-1.0595 -45.6313,-1.3454 -245.2806,-1.551 l -244.7822,-0.252 v -177 -177 l 426.1266,-0.25116 c 340.1489,-0.20049 426.3308,0.001 427.1387,1 3.5292,4.36273 14.8954,70.73662 18.7945,109.75116 3.2173,32.19328 2.9325,97.7767 -0.6253,144 -18.0489,234.4892 -106.6033,435.4901 -257.0864,583.5346 -138.6607,136.4137 -319.8802,219.8878 -521.8842,240.3924 -38.8545,3.944 -92.0439,5.6287 -128.9639,4.0848 z"
           style="fill:#f9ba05" />
        <path
           inkscape:connector-curvature="0"
           id="path104"
           d="m -1197.77,801.3374 c -170.4276,-7.1268 -329.1732,-57.9806 -470,-150.5635 -53.1452,-34.939 -95.3908,-69.6284 -143.5368,-117.8634 -47.0621,-47.1491 -81.1067,-88.7266 -116.0228,-141.6946 -23.7035,-35.9585 -57.6541,-96.2852 -56.2485,-99.948 0.4078,-1.0626 274.9914,-212.4704 302.9777,-233.2689 l 3.8035,-2.8266 0.9862,2.3266 c 0.5424,1.2796 3.0475,8.0991 5.5669,15.1543 20.4382,57.2349 55.2798,116.6954 97.0777,165.6723 12.8495,15.0565 42.7686,44.9931 57.8961,57.9301 106.1751,90.8005 239.8815,136.4691 381,130.1341 66.1558,-2.9698 118.1564,-12.1358 173,-30.4944 136.0708,-45.5487 232.258,-138.7838 275.9382,-267.4691 6.0183,-17.7303 14.934,-51.6884 14.1246,-53.7977 -0.4066,-1.0595 -45.6313,-1.3454 -245.2806,-1.551 l -244.7822,-0.252 v -177 -177 l 426.1266,-0.25116 c 340.1489,-0.20049 426.3308,0.001 427.1387,1 3.5292,4.36273 14.8954,70.73662 18.7945,109.75116 3.2173,32.19328 2.9325,97.7767 -0.6253,144 -18.0489,234.4892 -106.6033,435.4901 -257.0864,583.5346 -138.6607,136.4137 -319.8802,219.8878 -521.8842,240.3924 -38.8545,3.944 -92.0439,5.6287 -128.9639,4.0848 z m -632.0265,-1203.62148 c -83.8604,-64.10949 -152.9102,-116.9831 -153.4439,-117.49691 -0.6197,-0.59657 1.8694,-6.43839 6.8872,-16.16381 93.5242,-181.26966 245.726,-326.59566 431.0832,-411.6087 208.9231,-95.8214 450.6136,-109.5001 667.5,-37.77769 111.5936,36.90301 220.029,98.14522 309.8378,174.99038 l 9.3378,7.98991 -132.9804,132.98033 -132.9803,132.98034 -10.8575,-8.48121 c -74.7432,-58.38504 -164.921,-95.84099 -259.3574,-107.72579 -26.4177,-3.32465 -49.2561,-4.41245 -78.9739,-3.76153 -36.1617,0.79206 -61.103,3.40109 -93.3281,9.7628 -129.3152,25.52869 -242.5733,95.56615 -324.2832,200.53286 -32.4625,41.70215 -62.1045,95.61112 -79.9425,145.3887 -2.6608,7.425 -5.105,13.82693 -5.4316,14.22652 -0.3265,0.39958 -69.2068,-51.72671 -153.0672,-115.8362 z"
           style="fill:#4184f2" />
        <path
           inkscape:connector-curvature="0"
           id="path102"
           d="m -1197.77,801.3374 c -170.4276,-7.1268 -329.1732,-57.9806 -470,-150.5635 -53.1452,-34.939 -95.3908,-69.6284 -143.5368,-117.8634 -47.0621,-47.1491 -81.1067,-88.7266 -116.0228,-141.6946 -23.7035,-35.9585 -57.6541,-96.2852 -56.2485,-99.948 0.4078,-1.0626 274.9914,-212.4704 302.9777,-233.2689 l 3.8035,-2.8266 0.9862,2.3266 c 0.5424,1.2796 3.0475,8.0991 5.5669,15.1543 20.4382,57.2349 55.2798,116.6954 97.0777,165.6723 12.8495,15.0565 42.7686,44.9931 57.8961,57.9301 106.1751,90.8005 239.8815,136.4691 381,130.1341 66.1558,-2.9698 118.1564,-12.1358 173,-30.4944 33.5869,-11.2429 64.8201,-25.3515 93.271,-42.1321 7.9315,-4.678 11.6352,-6.3568 12.5,-5.666 0.676,0.5399 65.354,50.5825 143.729,111.2057 78.375,60.6232 143.552,111.2409 144.8377,112.4838 l 2.3378,2.2597 -9.9814,8.959 c -134.7097,120.9099 -305.9303,195.1335 -494.2302,214.2471 -38.8545,3.944 -92.0439,5.6287 -128.9639,4.0848 z m -632.0265,-1203.62148 c -83.8604,-64.10949 -152.9102,-116.9831 -153.4439,-117.49691 -0.6197,-0.59657 1.8694,-6.43839 6.8872,-16.16381 93.5242,-181.26966 245.726,-326.59566 431.0832,-411.6087 208.9231,-95.8214 450.6136,-109.5001 667.5,-37.77769 111.5936,36.90301 220.029,98.14522 309.8378,174.99038 l 9.3378,7.98991 -132.9804,132.98033 -132.9803,132.98034 -10.8575,-8.48121 c -74.7432,-58.38504 -164.921,-95.84099 -259.3574,-107.72579 -26.4177,-3.32465 -49.2561,-4.41245 -78.9739,-3.76153 -36.1617,0.79206 -61.103,3.40109 -93.3281,9.7628 -129.3152,25.52869 -242.5733,95.56615 -324.2832,200.53286 -32.4625,41.70215 -62.1045,95.61112 -79.9425,145.3887 -2.6608,7.425 -5.105,13.82693 -5.4316,14.22652 -0.3265,0.39958 -69.2068,-51.72671 -153.0672,-115.8362 z"
           style="fill:#ec6256" />
        <path
           inkscape:connector-curvature="0"
           id="path100"
           d="m -1197.77,801.3374 c -170.4276,-7.1268 -329.1732,-57.9806 -470,-150.5635 -53.1452,-34.939 -95.3908,-69.6284 -143.5368,-117.8634 -47.0621,-47.1491 -81.1067,-88.7266 -116.0228,-141.6946 -23.7035,-35.9585 -57.6541,-96.2852 -56.2485,-99.948 0.4078,-1.0626 274.9914,-212.4704 302.9777,-233.2689 l 3.8035,-2.8266 0.9862,2.3266 c 0.5424,1.2796 3.0475,8.0991 5.5669,15.1543 20.4382,57.2349 55.2798,116.6954 97.0777,165.6723 12.8495,15.0565 42.7686,44.9931 57.8961,57.9301 106.1751,90.8005 239.8815,136.4691 381,130.1341 66.1558,-2.9698 118.1564,-12.1358 173,-30.4944 33.5869,-11.2429 64.8201,-25.3515 93.271,-42.1321 7.9315,-4.678 11.6352,-6.3568 12.5,-5.666 0.676,0.5399 65.354,50.5825 143.729,111.2057 78.375,60.6232 143.552,111.2409 144.8377,112.4838 l 2.3378,2.2597 -9.9814,8.959 c -134.7097,120.9099 -305.9303,195.1335 -494.2302,214.2471 -38.8545,3.944 -92.0439,5.6287 -128.9639,4.0848 z m -631.9287,-1204.69193 c -83.1998,-63.62407 -151.523,-116.33334 -151.8293,-117.13171 -1.5916,-4.14756 31.4827,-62.79668 57.6275,-102.18816 33.9584,-51.16409 70.2026,-95.23325 115.5686,-140.51965 58.0257,-57.92384 118.8089,-104.51576 189.2841,-145.0913 216.8807,-124.86735 481.0807,-155.13435 720.2778,-82.51551 112.4224,34.13078 221.4011,92.4287 313.5,167.70626 8.25,6.74318 17.1159,13.9838 19.702,16.09026 2.5862,2.10647 4.7237,4.28058 4.75,4.83137 0.092,1.92031 -262.6894,263.81333 -264.1469,263.25401 -0.7698,-0.29539 -7.0034,-4.77451 -13.8524,-9.95361 -84.9201,-64.21509 -180.3679,-100.11201 -286.8328,-107.8749 -20.9185,-1.52527 -72.2737,-0.66862 -92.1199,1.53664 -29.4394,3.27123 -55.0002,7.8784 -80.5,14.50958 -79.165,20.58678 -149.4752,56.77323 -213.5,109.88181 -14.8227,12.29542 -53.8496,51.32236 -66.145,66.14504 -41.6308,50.18773 -73.7795,105.97232 -94.9445,164.74793 -2.4258,6.73636 -4.6707,12.24886 -4.9887,12.25 -0.318,10e-4 -68.6508,-52.05399 -151.8505,-115.67806 z"
           style="fill:#51b267" />
        <path
           inkscape:connector-curvature="0"
           id="path98"
           d="m -1202.194,799.3298 c -20.6717,-1.0315 -40.5161,-2.5656 -59.076,-4.567 -208.2018,-22.4506 -399.2418,-113.5672 -547.0741,-260.9272 -57.2536,-57.0707 -106.1421,-120.5735 -145.8968,-189.51 -11.3488,-19.6792 -27.5291,-50.3514 -27.5291,-52.1854 0,-0.9221 44.3372,-35.5781 106.25,-83.0499 58.4375,-44.8071 126.5718,-97.0593 151.4095,-116.1161 24.8378,-19.0567 45.5378,-34.6417 46,-34.6333 0.4623,0.01 2.795,5.521 5.1839,12.25 31.3216,88.2285 89.4905,171.2913 162.6566,232.2672 64.7687,53.9776 143.6675,93.1968 225.0667,111.8767 48.4128,11.11 91.9584,15.0596 147.9333,13.4174 100.2929,-2.9423 192.4251,-27.5837 268.3274,-71.7659 6.7801,-3.9467 12.7014,-7.0374 13.1585,-6.8682 0.457,0.1691 65.6315,50.4825 144.8323,111.8075 84.0763,65.1001 143.7268,111.9452 143.3416,112.5699 -1.3893,2.2531 -26.7838,24.319 -43.1598,37.5027 -136.2774,109.712 -307.9156,174.8563 -492.5,186.9259 -22.1723,1.4497 -78.5407,2.0228 -98.924,1.0057 z m -627.5047,-1202.68433 c -83.1998,-63.62407 -151.523,-116.33334 -151.8293,-117.13171 -1.5916,-4.14756 31.4827,-62.79668 57.6275,-102.18816 33.9584,-51.16409 70.2026,-95.23325 115.5686,-140.51965 58.0257,-57.92384 118.8089,-104.51576 189.2841,-145.0913 216.8807,-124.86735 481.0807,-155.13435 720.2778,-82.51551 112.4224,34.13078 221.4011,92.4287 313.5,167.70626 8.25,6.74318 17.1159,13.9838 19.702,16.09026 2.5862,2.10647 4.7237,4.28058 4.75,4.83137 0.092,1.92031 -262.6894,263.81333 -264.1469,263.25401 -0.7698,-0.29539 -7.0034,-4.77451 -13.8524,-9.95361 -84.9201,-64.21509 -180.3679,-100.11201 -286.8328,-107.8749 -20.9185,-1.52527 -72.2737,-0.66862 -92.1199,1.53664 -29.4394,3.27123 -55.0002,7.8784 -80.5,14.50958 -79.165,20.58678 -149.4752,56.77323 -213.5,109.88181 -14.8227,12.29542 -53.8496,51.32236 -66.145,66.14504 -41.6308,50.18773 -73.7795,105.97232 -94.9445,164.74793 -2.4258,6.73636 -4.6707,12.24886 -4.9887,12.25 -0.318,10e-4 -68.6508,-52.05399 -151.8505,-115.67806 z"
           style="fill:#e94234" />
        <path
           inkscape:connector-curvature="0"
           id="path96"
           d="m -1202.194,799.3298 c -20.6717,-1.0315 -40.5161,-2.5656 -59.076,-4.567 -208.2018,-22.4506 -399.2418,-113.5672 -547.0741,-260.9272 -57.2536,-57.0707 -106.1421,-120.5735 -145.8968,-189.51 -11.3488,-19.6792 -27.5291,-50.3514 -27.5291,-52.1854 0,-0.9221 44.3372,-35.5781 106.25,-83.0499 58.4375,-44.8071 126.5718,-97.0593 151.4095,-116.1161 24.8378,-19.0567 45.5378,-34.6417 46,-34.6333 0.4623,0.01 2.795,5.521 5.1839,12.25 31.3216,88.2285 89.4905,171.2913 162.6566,232.2672 64.7687,53.9776 143.6675,93.1968 225.0667,111.8767 48.4128,11.11 91.9584,15.0596 147.9333,13.4174 100.2929,-2.9423 192.4251,-27.5837 268.3274,-71.7659 6.7801,-3.9467 12.7014,-7.0374 13.1585,-6.8682 0.457,0.1691 65.6315,50.4825 144.8323,111.8075 84.0763,65.1001 143.7268,111.9452 143.3416,112.5699 -1.3893,2.2531 -26.7838,24.319 -43.1598,37.5027 -136.2774,109.712 -307.9156,174.8563 -492.5,186.9259 -22.1723,1.4497 -78.5407,2.0228 -98.924,1.0057 z"
           style="fill:#33a752" />
      </g>
    </g>
  </g>
</svg>
