<?xml version="1.0" encoding="UTF-8" standalone="no"?>
<svg
   xmlns:dc="http://purl.org/dc/elements/1.1/"
   xmlns:cc="http://creativecommons.org/ns#"
   xmlns:rdf="http://www.w3.org/1999/02/22-rdf-syntax-ns#"
   xmlns:svg="http://www.w3.org/2000/svg"
   xmlns="http://www.w3.org/2000/svg"
   xmlns:sodipodi="http://sodipodi.sourceforge.net/DTD/sodipodi-0.dtd"
   xmlns:inkscape="http://www.inkscape.org/namespaces/inkscape"
   fill="#000000"
   height="24"
   viewBox="0 0 24 24"
   width="24"
   version="1.1"
   id="svg6"
   sodipodi:docname="grupos.svg"
   inkscape:version="0.92+devel unknown">
  <metadata
     id="metadata12">
    <rdf:RDF>
      <cc:Work
         rdf:about="">
        <dc:format>image/svg+xml</dc:format>
        <dc:type
           rdf:resource="http://purl.org/dc/dcmitype/StillImage" />
      </cc:Work>
    </rdf:RDF>
  </metadata>
  <defs
     id="defs10" />
  <sodipodi:namedview
     pagecolor="#ffffff"
     bordercolor="#666666"
     inkscape:document-rotation="0"
     borderopacity="1"
     objecttolerance="10"
     gridtolerance="10"
     guidetolerance="10"
     inkscape:pageopacity="0"
     inkscape:pageshadow="2"
     inkscape:window-width="1920"
     inkscape:window-height="1051"
     id="namedview8"
     showgrid="false"
     inkscape:zoom="16.440233"
     inkscape:cx="13.55217"
     inkscape:cy="4.8404507"
     inkscape:window-x="1366"
     inkscape:window-y="0"
     inkscape:window-maximized="1"
     inkscape:current-layer="svg6" />
  <path
     d="M0 0h24v24H0z"
     fill="none"
     id="path2" />
  <path
     d="m 16.392607,11.121653 c 1.797689,0 3.238005,-1.8697981 3.238005,-4.1861148 0,-2.3163167 -1.440316,-4.1861146 -3.238005,-4.1861146 -1.797689,0 -3.248836,1.8697979 -3.248836,4.1861146 0,2.3163167 1.451147,4.1861148 3.248836,4.1861148 z"
     id="path20"
     style="fill:#afdde9;stroke-width:1.22927237"
     inkscape:connector-curvature="0" />
  <path
     d="m 7.7290461,11.121653 c 1.7976889,0 3.2380059,-1.8697981 3.2380059,-4.1861148 0,-2.3163167 -1.440317,-4.1861146 -3.2380059,-4.1861146 -1.7976888,0 -3.2488352,1.8697979 -3.2488352,4.1861146 0,2.3163167 1.4511464,4.1861148 3.2488352,4.1861148 z"
     id="path18"
     style="fill:#5599ff;stroke-width:1.22927237;fill-opacity:1"
     inkscape:connector-curvature="0" />
  <path
     d="m 7.7290461,13.36496 c -2.5232621,0 -7.58061554,2.059586 -7.58061554,6.161154 v 4.400823 H 15.309661 v -4.400823 c 0,-4.101568 -5.057353,-6.161154 -7.5806149,-6.161154 z"
     id="path16"
     style="fill:#5599ff;stroke-width:1.38070273;fill-opacity:1"
     inkscape:connector-curvature="0" />
  <path
     d="m 16.392607,13.36496 c -0.314054,0 -0.671427,0.0352 -1.050457,0.08801 1.256217,1.478678 2.133402,3.467849 2.133402,6.073137 v 4.400824 h 6.49767 v -4.400824 c 0,-4.101568 -5.057353,-6.161154 -7.580615,-6.161154 z"
     id="path4"
     style="fill:#afdde9;stroke-width:1.38070273"
     inkscape:connector-curvature="0" />
</svg>
