<?xml version="1.0" encoding="UTF-8" standalone="no"?>
<svg
   xmlns:dc="http://purl.org/dc/elements/1.1/"
   xmlns:cc="http://creativecommons.org/ns#"
   xmlns:rdf="http://www.w3.org/1999/02/22-rdf-syntax-ns#"
   xmlns:svg="http://www.w3.org/2000/svg"
   xmlns="http://www.w3.org/2000/svg"
   xmlns:sodipodi="http://sodipodi.sourceforge.net/DTD/sodipodi-0.dtd"
   xmlns:inkscape="http://www.inkscape.org/namespaces/inkscape"
   fill="#000000"
   height="24"
   viewBox="0 0 24 24"
   width="24"
   version="1.1"
   id="svg6"
   sodipodi:docname="logout.svg"
   inkscape:version="0.92+devel unknown">
  <metadata
     id="metadata12">
    <rdf:RDF>
      <cc:Work
         rdf:about="">
        <dc:format>image/svg+xml</dc:format>
        <dc:type
           rdf:resource="http://purl.org/dc/dcmitype/StillImage" />
      </cc:Work>
    </rdf:RDF>
  </metadata>
  <defs
     id="defs10" />
  <sodipodi:namedview
     pagecolor="#ffffff"
     bordercolor="#666666"
     inkscape:document-rotation="0"
     borderopacity="1"
     objecttolerance="10"
     gridtolerance="10"
     guidetolerance="10"
     inkscape:pageopacity="0"
     inkscape:pageshadow="2"
     inkscape:window-width="1168"
     inkscape:window-height="703"
     id="namedview8"
     showgrid="false"
     inkscape:zoom="3.97011"
     inkscape:cx="-4.0333409"
     inkscape:cy="22.989935"
     inkscape:window-x="155"
     inkscape:window-y="279"
     inkscape:window-maximized="0"
     inkscape:current-layer="svg6" />
  <path
     d="M0 0h24v24H0z"
     fill="none"
     id="path2" />
  <path
     d="M 13.480511,0.28450043 H 10.525098 V 13.62637 h 2.955413 z m 5.260635,2.17040717 -2.142674,2.1426746 c 2.556431,1.5515919 4.270571,4.344457 4.270571,7.5510798 0,4.891209 -3.97503,8.86624 -8.866239,8.86624 -4.8912086,0 -8.8662395,-3.975031 -8.8662395,-8.86624 0,-3.2066228 1.7141397,-5.9994879 4.2557951,-7.565857 L 5.2644621,2.4549076 C 2.1908322,4.582805 0.18115145,8.1293009 0.18115145,12.148662 c 0,6.531463 5.29018955,11.821653 11.82165255,11.821653 6.531463,0 11.821653,-5.29019 11.821653,-11.821653 0,-4.0193611 -2.009682,-7.565857 -5.083311,-9.6937544 z"
     id="path4"
     inkscape:connector-curvature="0"
     sodipodi:nodetypes="cccccccsssccsssc"
     style="stroke-width:1.47770655;fill:#6f918a" />
</svg>
