<?xml version="1.0" encoding="UTF-8" standalone="no"?>
<svg
   xmlns:dc="http://purl.org/dc/elements/1.1/"
   xmlns:cc="http://creativecommons.org/ns#"
   xmlns:rdf="http://www.w3.org/1999/02/22-rdf-syntax-ns#"
   xmlns:svg="http://www.w3.org/2000/svg"
   xmlns="http://www.w3.org/2000/svg"
   xmlns:sodipodi="http://sodipodi.sourceforge.net/DTD/sodipodi-0.dtd"
   xmlns:inkscape="http://www.inkscape.org/namespaces/inkscape"
   fill="#000000"
   height="24"
   viewBox="0 0 24 24"
   width="24"
   version="1.1"
   id="svg6"
   sodipodi:docname="opciones.svg"
   inkscape:version="0.92+devel unknown">
  <metadata
     id="metadata12">
    <rdf:RDF>
      <cc:Work
         rdf:about="">
        <dc:format>image/svg+xml</dc:format>
        <dc:type
           rdf:resource="http://purl.org/dc/dcmitype/StillImage" />
        <dc:title />
      </cc:Work>
    </rdf:RDF>
  </metadata>
  <defs
     id="defs10" />
  <sodipodi:namedview
     pagecolor="#ffffff"
     bordercolor="#666666"
     inkscape:document-rotation="0"
     borderopacity="1"
     objecttolerance="10"
     gridtolerance="10"
     guidetolerance="10"
     inkscape:pageopacity="0"
     inkscape:pageshadow="2"
     inkscape:window-width="1920"
     inkscape:window-height="1051"
     id="namedview8"
     showgrid="false"
     inkscape:zoom="15.497423"
     inkscape:cx="6.0090857"
     inkscape:cy="15.687731"
     inkscape:window-x="1366"
     inkscape:window-y="0"
     inkscape:window-maximized="1"
     inkscape:current-layer="g10404-4-1-3-5" />
  <g
     id="g10404-4-1-3-5"
     style="display:inline"
     transform="matrix(3.6629892,0,0,3.6629892,-1006.1043,-167.54091)">
    <g
       style="fill:#5f8dd3;opacity:1"
       id="g10348-8-3-5-11"
       transform="matrix(0.13011335,0,0,0.13011335,275.47631,46.744797)">
      <path
         id="path10336-0-7-3-3"
         d="m 19.43,12.98 c 0.04,-0.32 0.07,-0.64 0.07,-0.98 0,-0.34 -0.03,-0.66 -0.07,-0.98 l 2.11,-1.65 c 0.19,-0.15 0.24,-0.42 0.12,-0.64 l -2,-3.46 C 19.54,5.05 19.27,4.97 19.05,5.05 l -2.49,1 C 16.04,5.65 15.48,5.32 14.87,5.07 L 14.49,2.42 C 14.46,2.18 14.25,2 14,2 H 10 C 9.75,2 9.54,2.18 9.51,2.42 L 9.13,5.07 C 8.52,5.32 7.96,5.66 7.44,6.05 l -2.49,-1 C 4.72,4.96 4.46,5.05 4.34,5.27 l -2,3.46 C 2.21,8.95 2.27,9.22 2.46,9.37 l 2.11,1.65 C 4.53,11.34 4.5,11.67 4.5,12 c 0,0.33 0.03,0.66 0.07,0.98 l -2.11,1.65 c -0.19,0.15 -0.24,0.42 -0.12,0.64 l 2,3.46 c 0.12,0.22 0.39,0.3 0.61,0.22 l 2.49,-1 c 0.52,0.4 1.08,0.73 1.69,0.98 l 0.38,2.65 C 9.54,21.82 9.75,22 10,22 h 4 c 0.25,0 0.46,-0.18 0.49,-0.42 l 0.38,-2.65 c 0.61,-0.25 1.17,-0.59 1.69,-0.98 l 2.49,1 c 0.23,0.09 0.49,0 0.61,-0.22 l 2,-3.46 c 0.12,-0.22 0.07,-0.49 -0.12,-0.64 z M 12,15.5 c -1.93,0 -3.5,-1.57 -3.5,-3.5 0,-1.93 1.57,-3.5 3.5,-3.5 1.93,0 3.5,1.57 3.5,3.5 0,1.93 -1.57,3.5 -3.5,3.5 z"
         inkscape:connector-curvature="0"
         style="fill:#5599ff;fill-opacity:1" />
    </g>
    <ellipse
       style="fill:none;fill-opacity:1;stroke:#5599ff;stroke-width:0.44035074;stroke-miterlimit:4;stroke-dasharray:none;opacity:1;stroke-opacity:1"
       id="path10350-3-2-4-0"
       cx="277.94357"
       cy="49.014862"
       rx="2.7697425"
       ry="2.8299539" />
    <g
       style="display:inline;fill:#5599ff;opacity:1;fill-opacity:1"
       id="g10348-9-04-6-1-0"
       transform="matrix(0.11082082,0,0,0.11082082,276.44435,49.080332)">
      <path
         id="path10336-9-4-5-0-5"
         d="m 19.43,12.98 c 0.04,-0.32 0.07,-0.64 0.07,-0.98 0,-0.34 -0.03,-0.66 -0.07,-0.98 l 2.11,-1.65 c 0.19,-0.15 0.24,-0.42 0.12,-0.64 l -2,-3.46 C 19.54,5.05 19.27,4.97 19.05,5.05 l -2.49,1 C 16.04,5.65 15.48,5.32 14.87,5.07 L 14.49,2.42 C 14.46,2.18 14.25,2 14,2 H 10 C 9.75,2 9.54,2.18 9.51,2.42 L 9.13,5.07 C 8.52,5.32 7.96,5.66 7.44,6.05 l -2.49,-1 C 4.72,4.96 4.46,5.05 4.34,5.27 l -2,3.46 C 2.21,8.95 2.27,9.22 2.46,9.37 l 2.11,1.65 C 4.53,11.34 4.5,11.67 4.5,12 c 0,0.33 0.03,0.66 0.07,0.98 l -2.11,1.65 c -0.19,0.15 -0.24,0.42 -0.12,0.64 l 2,3.46 c 0.12,0.22 0.39,0.3 0.61,0.22 l 2.49,-1 c 0.52,0.4 1.08,0.73 1.69,0.98 l 0.38,2.65 C 9.54,21.82 9.75,22 10,22 h 4 c 0.25,0 0.46,-0.18 0.49,-0.42 l 0.38,-2.65 c 0.61,-0.25 1.17,-0.59 1.69,-0.98 l 2.49,1 c 0.23,0.09 0.49,0 0.61,-0.22 l 2,-3.46 c 0.12,-0.22 0.07,-0.49 -0.12,-0.64 z M 12,15.5 c -1.93,0 -3.5,-1.57 -3.5,-3.5 0,-1.93 1.57,-3.5 3.5,-3.5 1.93,0 3.5,1.57 3.5,3.5 0,1.93 -1.57,3.5 -3.5,3.5 z"
         inkscape:connector-curvature="0"
         style="fill:#5599ff;fill-opacity:1" />
    </g>
    <g
       style="display:inline;fill:#5599ff;opacity:1;fill-opacity:1"
       id="g10348-9-0-4-2-8-4"
       transform="matrix(0.11082082,0,0,0.11082082,277.96437,47.428755)">
      <path
         id="path10336-9-1-6-2-5-4"
         d="m 19.43,12.98 c 0.04,-0.32 0.07,-0.64 0.07,-0.98 0,-0.34 -0.03,-0.66 -0.07,-0.98 l 2.11,-1.65 c 0.19,-0.15 0.24,-0.42 0.12,-0.64 l -2,-3.46 C 19.54,5.05 19.27,4.97 19.05,5.05 l -2.49,1 C 16.04,5.65 15.48,5.32 14.87,5.07 L 14.49,2.42 C 14.46,2.18 14.25,2 14,2 H 10 C 9.75,2 9.54,2.18 9.51,2.42 L 9.13,5.07 C 8.52,5.32 7.96,5.66 7.44,6.05 l -2.49,-1 C 4.72,4.96 4.46,5.05 4.34,5.27 l -2,3.46 C 2.21,8.95 2.27,9.22 2.46,9.37 l 2.11,1.65 C 4.53,11.34 4.5,11.67 4.5,12 c 0,0.33 0.03,0.66 0.07,0.98 l -2.11,1.65 c -0.19,0.15 -0.24,0.42 -0.12,0.64 l 2,3.46 c 0.12,0.22 0.39,0.3 0.61,0.22 l 2.49,-1 c 0.52,0.4 1.08,0.73 1.69,0.98 l 0.38,2.65 C 9.54,21.82 9.75,22 10,22 h 4 c 0.25,0 0.46,-0.18 0.49,-0.42 l 0.38,-2.65 c 0.61,-0.25 1.17,-0.59 1.69,-0.98 l 2.49,1 c 0.23,0.09 0.49,0 0.61,-0.22 l 2,-3.46 c 0.12,-0.22 0.07,-0.49 -0.12,-0.64 z M 12,15.5 c -1.93,0 -3.5,-1.57 -3.5,-3.5 0,-1.93 1.57,-3.5 3.5,-3.5 1.93,0 3.5,1.57 3.5,3.5 0,1.93 -1.57,3.5 -3.5,3.5 z"
         inkscape:connector-curvature="0"
         style="fill:#5599ff;fill-opacity:1" />
    </g>
  </g>
</svg>
