<?xml version="1.0" encoding="UTF-8" standalone="no"?>
<svg
   xmlns:dc="http://purl.org/dc/elements/1.1/"
   xmlns:cc="http://creativecommons.org/ns#"
   xmlns:rdf="http://www.w3.org/1999/02/22-rdf-syntax-ns#"
   xmlns:svg="http://www.w3.org/2000/svg"
   xmlns="http://www.w3.org/2000/svg"
   id="svg8"
   version="1.1"
   width="24"
   viewBox="0 0 24 24"
   height="24"
   fill="#000000">
  <metadata
     id="metadata14">
    <rdf:RDF>
      <cc:Work
         rdf:about="">
        <dc:format>image/svg+xml</dc:format>
        <dc:type
           rdf:resource="http://purl.org/dc/dcmitype/StillImage" />
        <dc:title></dc:title>
      </cc:Work>
    </rdf:RDF>
  </metadata>
  <defs
     id="defs12" />
  <rect
     ry="3.1722283"
     y="0.26799655"
     x="0.2517547"
     height="23.474491"
     width="23.474491"
     id="rect841"
     style="opacity:1;vector-effect:none;fill:#ffff00;fill-opacity:1;stroke:#000000;stroke-width:0.56021792;stroke-linecap:butt;stroke-linejoin:miter;stroke-miterlimit:4;stroke-dasharray:none;stroke-dashoffset:0;stroke-opacity:1" />
  <g
     transform="matrix(0.63307004,0,0,0.63307004,-13.03663,-93.698232)"
     id="g996">
    <path
       id="path998"
       d="m 43.845684,184.26799 c -1.158002,-0.48691 -1.132724,-0.70824 0.629095,-5.5082 0.802527,-2.18644 1.416315,-4.08419 1.363973,-4.21724 -0.05234,-0.13305 -1.265679,-1.04123 -2.696307,-2.01817 l -2.601138,-1.77625 -1.97363,2.38342 c -1.085496,1.31088 -2.189283,2.47263 -2.452861,2.58167 -0.263578,0.10904 -2.269667,0.34639 -4.457976,0.52743 l -3.978745,0.32917 -0.47811,-0.44916 c -0.620078,-0.58253 -0.639793,-1.50545 -0.04411,-2.06506 0.380677,-0.35763 0.881129,-0.44704 4.07347,-0.72775 2.00171,-0.176 3.645952,-0.33104 3.65387,-0.34454 0.0079,-0.0135 2.109753,-2.94024 4.670742,-6.5039 2.56099,-3.56366 4.606869,-6.52886 4.546402,-6.58932 -0.06047,-0.0605 -0.95464,-0.34606 -1.987044,-0.63463 l -1.877103,-0.52468 -2.626189,1.79454 c -2.814406,1.92314 -3.451698,2.13834 -4.1789,1.41114 -0.529671,-0.52967 -0.5058,-1.54854 0.04793,-2.04548 0.578204,-0.51889 5.714372,-3.99536 6.117411,-4.14062 0.309888,-0.11169 7.402784,1.64093 8.061717,1.99202 0.181133,0.0965 1.203978,1.51096 2.272989,3.14324 l 1.943654,2.96777 2.231789,0.006 c 2.40329,0.007 2.740651,0.11777 3.082126,1.01592 0.237276,0.62409 -0.005,1.3632 -0.541019,1.65003 -0.219595,0.11753 -1.598853,0.20335 -3.267952,0.20335 -3.292143,0 -3.06071,0.10003 -4.325686,-1.86974 -0.421724,-0.65669 -0.809902,-1.19436 -0.862617,-1.19483 -0.0988,-8.6e-4 -3.258775,5.42074 -3.258775,5.59112 0,0.0525 0.947536,0.8868 2.105636,1.85415 1.183499,0.98856 2.153945,1.95127 2.215945,2.1983 0.07216,0.28753 -0.497491,2.12595 -1.647467,5.3168 -0.966775,2.68252 -1.832735,5.01919 -1.924359,5.19261 -0.271112,0.51314 -1.166079,0.7328 -1.83675,0.4508 z M 22.024701,170.75354 c -0.287266,-0.31742 -0.309792,-0.46727 -0.129666,-0.86261 l 0.217997,-0.47845 h 5.141474 c 3.743333,0 5.204025,0.0625 5.371503,0.23003 0.332115,0.33211 0.282929,0.81284 -0.120525,1.17795 -0.306916,0.27775 -0.959455,0.31725 -5.241837,0.31725 -4.651139,0 -4.908352,-0.0189 -5.238946,-0.38417 z m 1.931324,-2.98415 c -0.165678,-0.16567 -0.301232,-0.41829 -0.301232,-0.56138 0,-0.14308 0.135554,-0.39571 0.301232,-0.56139 0.171658,-0.17166 1.66408,-0.27812 3.474198,-0.31942 2.956731,-0.0675 6.761119,0.039 7.041513,0.31942 0.353238,0.35324 0.372391,0.54948 0.102795,1.05322 -0.188494,0.35221 -0.451946,0.37078 -5.257856,0.37078 -4.343882,0 -5.102021,-0.0426 -5.36065,-0.30123 z m 2.477607,-2.76662 c -0.287265,-0.31743 -0.309792,-0.46728 -0.129666,-0.86262 l 0.217997,-0.47846 h 5.141474 c 3.743333,0 5.204026,0.0625 5.371504,0.23004 0.332114,0.33211 0.282928,0.81283 -0.120526,1.17795 -0.306916,0.27776 -0.959455,0.31725 -5.241838,0.31725 -4.651138,0 -4.90835,-0.0189 -5.238945,-0.38416 z m 23.288444,-8.28993 c -2.679535,-1.35818 -1.764587,-5.3216 1.238961,-5.367 1.160241,-0.0176 2.021424,0.52969 2.570942,1.6337 0.511139,1.02689 0.467701,1.74154 -0.169341,2.78598 -0.390881,0.64085 -1.657308,1.36642 -2.398946,1.37442 -0.21488,0.002 -0.773608,-0.18988 -1.241616,-0.4271 z"
       style="fill:#000000;stroke-width:0.19169267" />
  </g>
</svg>
