<?xml version="1.0" encoding="UTF-8" standalone="no"?>
<!-- Generator: Adobe Illustrator 16.0.0, SVG Export Plug-In . SVG Version: 6.00 Build 0)  -->

<svg
   xmlns:dc="http://purl.org/dc/elements/1.1/"
   xmlns:cc="http://creativecommons.org/ns#"
   xmlns:rdf="http://www.w3.org/1999/02/22-rdf-syntax-ns#"
   xmlns:svg="http://www.w3.org/2000/svg"
   xmlns="http://www.w3.org/2000/svg"
   xmlns:sodipodi="http://sodipodi.sourceforge.net/DTD/sodipodi-0.dtd"
   xmlns:inkscape="http://www.inkscape.org/namespaces/inkscape"
   version="1.1"
   id="Layer_1"
   x="0px"
   y="0px"
   width="24"
   height="24"
   viewBox="0 0 24 24.000001"
   enable-background="new 0 0 266.893 266.895"
   xml:space="preserve"
   sodipodi:docname="twitter.svg"
   inkscape:version="0.92+devel unknown"><metadata
     id="metadata9"><rdf:RDF><cc:Work
         rdf:about=""><dc:format>image/svg+xml</dc:format><dc:type
           rdf:resource="http://purl.org/dc/dcmitype/StillImage" /><dc:title></dc:title></cc:Work></rdf:RDF></metadata><defs
     id="defs7" /><sodipodi:namedview
     pagecolor="#ffffff"
     bordercolor="#666666"
     inkscape:document-rotation="0"
     borderopacity="1"
     objecttolerance="10"
     gridtolerance="10"
     guidetolerance="10"
     inkscape:pageopacity="0"
     inkscape:pageshadow="2"
     inkscape:window-width="1366"
     inkscape:window-height="707"
     id="namedview5"
     showgrid="false"
     inkscape:zoom="2"
     inkscape:cx="-59.022848"
     inkscape:cy="37.303431"
     inkscape:window-x="0"
     inkscape:window-y="312"
     inkscape:window-maximized="1"
     inkscape:current-layer="Layer_1" /><style
     id="style1357"
     type="text/css">
	.st0{fill:#43C1E8;}
	.st1{opacity:0.2;fill:#2D3079;}
	.st2{opacity:0.2;fill:#FFFFFF;}
	.st3{opacity:0.1;fill:#FFFFFF;}
	.st4{fill:#FFFFFF;}
	.st5{opacity:0.2;}
	.st6{fill:#202020;}
</style><g
     id="g1409"
     transform="matrix(0.15786627,0,0,0.15786627,0.00357942,0.00323447)"><g
       id="XMLID_7_"><path
         id="XMLID_2_"
         d="M 140,152 H 12 C 5.4,152 0,146.6 0,140 V 12 C 0,5.4 5.4,0 12,0 h 128 c 6.6,0 12,5.4 12,12 v 128 c 0,6.6 -5.4,12 -12,12 z"
         class="st0"
         inkscape:connector-curvature="0" /><path
         id="XMLID_14_"
         d="M 140,151 H 12 C 5.4,151 0,145.6 0,139 v 1 c 0,6.6 5.4,12 12,12 h 128 c 6.6,0 12,-5.4 12,-12 v -1 c 0,6.6 -5.4,12 -12,12 z"
         class="st1"
         inkscape:connector-curvature="0" /><path
         id="XMLID_15_"
         d="M 140,0 H 12 C 5.4,0 0,5.4 0,12 v 1 C 0,6.4 5.4,1 12,1 h 128 c 6.6,0 12,5.4 12,12 V 12 C 152,5.4 146.6,0 140,0 Z"
         class="st2"
         inkscape:connector-curvature="0" /><path
         id="XMLID_3_"
         d="M 140,152 H 76 V 0 h 64 c 6.6,0 12,5.4 12,12 v 128 c 0,6.6 -5.4,12 -12,12 z"
         class="st3"
         inkscape:connector-curvature="0" /></g><g
       id="XMLID_16_"><path
         id="XMLID_31_"
         d="m 56.8,97.5 c -8.9,-0.8 -15,-5.3 -18.3,-13.7 3,0.3 5.7,0.4 8.6,-0.3 -9.7,-3 -14.9,-9.4 -15.6,-19.6 2.9,1.4 5.6,2.3 8.7,2.4 C 31.5,59 29.5,50.4 34.3,40 45.1,52.6 58.5,59.5 75,60.6 c -0.1,-0.8 -0.2,-1.5 -0.3,-2.1 -1,-8.2 3.3,-16.2 10.7,-20 7.5,-3.8 16.5,-2.4 22.5,3.4 0.6,0.6 1.1,0.7 1.9,0.5 3.6,-0.9 6.9,-2.1 10.2,-3.9 0.3,-0.2 0.6,-0.3 1.2,-0.6 -0.7,2.4 -1.7,4.4 -3.2,6.1 -1.5,1.7 -3.1,3.1 -4.7,4.6 3.5,-0.4 7,-1.5 10.6,-2.9 -2.3,3.4 -4.7,6.2 -7.7,8.5 -1.6,1.2 -2,2.4 -2,4.3 0,22.2 -13.6,43.4 -33.6,51.5 -17.5,7.1 -34.7,5.9 -51.3,-3.5 -0.3,-0.2 -0.6,-0.4 -0.9,-0.6 0,0 -0.1,-0.1 -0.1,-0.2 7.3,0.7 14.4,-0.4 21,-3.5 2.6,-1.3 5.1,-2.8 7.5,-4.7 z"
         class="st4"
         inkscape:connector-curvature="0" /><g
         id="XMLID_24_"
         class="st5"><path
           id="XMLID_30_"
           d="m 114.5,48.5 c -0.4,0.4 -0.8,0.8 -1.2,1.2 3.2,-0.4 6.3,-1.3 9.6,-2.6 0.3,-0.4 0.6,-0.9 1,-1.4 -3.3,1.3 -6.4,2.3 -9.4,2.8 z"
           class="st4"
           inkscape:connector-curvature="0" /><path
           id="XMLID_29_"
           d="m 85.4,39.5 c 7.5,-3.8 16.5,-2.4 22.5,3.4 0.6,0.6 1.1,0.7 1.9,0.5 3.6,-0.9 6.9,-2.1 10.2,-3.9 0.2,-0.1 0.4,-0.2 0.7,-0.4 0.1,-0.4 0.3,-0.8 0.4,-1.2 -0.5,0.3 -0.9,0.4 -1.2,0.6 -3.2,1.8 -6.6,3 -10.2,3.9 -0.8,0.2 -1.3,0.1 -1.9,-0.5 -6,-5.8 -15,-7.1 -22.5,-3.4 C 78.7,42 74.5,48.9 74.6,56.4 74.9,49.3 79,42.8 85.4,39.5 Z"
           class="st4"
           inkscape:connector-curvature="0" /><path
           id="XMLID_28_"
           d="m 38.5,83.8 c 0.1,0.4 0.3,0.7 0.4,1 2.8,0.3 5.4,0.4 8.2,-0.4 -0.6,-0.2 -1.2,-0.4 -1.8,-0.6 -2.3,0.4 -4.5,0.3 -6.8,0 z"
           class="st4"
           inkscape:connector-curvature="0" /><path
           id="XMLID_27_"
           d="M 34.3,41 C 45.1,53.6 58.5,60.5 75,61.6 75,61.2 74.9,60.9 74.9,60.6 58.5,59.4 45.1,52.6 34.3,40 c -1.8,4 -2.6,7.7 -2.5,11.1 0,-3.2 0.9,-6.5 2.5,-10.1 z"
           class="st4"
           inkscape:connector-curvature="0" /><path
           id="XMLID_26_"
           d="m 29.2,106.5 c 0.2,0.1 0.3,0.2 0.5,0.3 6.8,0.4 13.3,-0.7 19.5,-3.6 2.7,-1.2 5.2,-2.7 7.6,-4.6 -0.4,0 -0.8,-0.1 -1.2,-0.1 -2.1,1.5 -4.2,2.7 -6.4,3.8 -6.7,3.1 -13.7,4.2 -21,3.5 0.1,0.1 0.1,0.2 0.1,0.2 0.3,0.1 0.6,0.3 0.9,0.5 z"
           class="st4"
           inkscape:connector-curvature="0" /><path
           id="XMLID_25_"
           d="m 40.2,67.3 c -0.4,-0.4 -0.8,-0.7 -1.2,-1.1 -2.6,-0.3 -5,-1.1 -7.5,-2.3 0,0.4 0.1,0.7 0.1,1 2.8,1.4 5.6,2.3 8.6,2.4 z"
           class="st4"
           inkscape:connector-curvature="0" /></g><g
         id="XMLID_17_"
         class="st5"><path
           id="XMLID_23_"
           d="m 38.9,84.9 c -0.2,0 -0.3,0 -0.4,0 3.2,8.1 8.9,12.5 17.2,13.6 0.4,-0.3 0.8,-0.6 1.2,-0.9 -8.7,-0.9 -14.6,-5 -18,-12.7 z"
           class="st6"
           inkscape:connector-curvature="0" /><path
           id="XMLID_22_"
           d="m 74.9,60.6 c 0,0 0.1,0 0.1,0 -0.1,-0.8 -0.2,-1.5 -0.3,-2.1 -0.1,-0.7 -0.1,-1.4 -0.1,-2.2 0,1 0,2.1 0.1,3.2 0.1,0.4 0.1,0.8 0.2,1.1 z"
           class="st6"
           inkscape:connector-curvature="0" /><path
           id="XMLID_21_"
           d="m 117.9,45 c 1.5,-1.7 2.5,-3.7 3.2,-6.1 -0.2,0.1 -0.3,0.2 -0.4,0.2 -0.7,1.8 -1.6,3.5 -2.8,4.8 -1.5,1.7 -3.1,3.1 -4.7,4.6 0.4,0 0.8,-0.1 1.2,-0.2 1.2,-0.9 2.4,-2 3.5,-3.3 z"
           class="st6"
           inkscape:connector-curvature="0" /><path
           id="XMLID_20_"
           d="m 39,66.2 c 0.4,0 0.8,0.1 1.2,0.1 -5.4,-4.5 -8.2,-9.5 -8.4,-15.2 -0.1,5.6 2.3,10.6 7.2,15.1 z"
           class="st6"
           inkscape:connector-curvature="0" /><path
           id="XMLID_19_"
           d="m 116.1,54.2 c -1.6,1.2 -2,2.4 -2,4.3 0,22.2 -13.6,43.4 -33.6,51.5 -17.4,7.1 -34.4,6 -50.8,-3.2 -0.5,0 -1,-0.1 -1.5,-0.1 0.1,0.1 0.1,0.2 0.1,0.2 0.3,0.2 0.6,0.4 0.9,0.6 16.5,9.5 33.7,10.6 51.3,3.5 20,-8.1 33.7,-29.3 33.6,-51.5 0,-1.9 0.5,-3.1 2,-4.3 3,-2.2 5.4,-5.1 7.7,-8.5 -0.3,0.1 -0.6,0.3 -1,0.4 -1.9,2.8 -4.1,5.2 -6.7,7.1 z"
           class="st6"
           inkscape:connector-curvature="0" /><path
           id="XMLID_18_"
           d="m 45.3,83.9 c 0.6,-0.1 1.2,-0.2 1.8,-0.4 -9.4,-2.9 -14.5,-9 -15.5,-18.6 0,0 -0.1,0 -0.1,0 0.6,9.5 5.2,15.8 13.8,19 z"
           class="st6"
           inkscape:connector-curvature="0" /></g></g></g></svg>